<svg xmlns="http://www.w3.org/2000/svg" viewBox="0 0 73.88 160.83"><defs><style>.a{fill:#e94462;}.b{fill:#fff;opacity:0.31;}</style></defs><path class="a" d="M1.77,123.73s3.49,37.1,33.11,37.1,39-30.34,39-38.86S72,106.19,62.24,95.63s-.88-18.15,1.29-19a9.63,9.63,0,0,0,6.32-8c.88-5.31,2.11-9.38-2-22.93s-4-17.82-10.19-20.33c-5.93-2.4-10.95,3.37-16.17-5.45a1.33,1.33,0,0,1,1.39-2h.06C45,18.32,46,11.48,45.43,7.54,45,4.86,44.17,1.11,40.89.26A13.51,13.51,0,0,0,26.27,7.65a10,10,0,0,0-1.1,4.79c.09,5,.93,16.76,6.74,20.29A1.9,1.9,0,0,0,33,33c2.51-.15,12.94-.24,14.81,8.15,2.13,9.56,4.22,18.15,1,19.9S44,63.41,42.35,59.67s-3.29-7.49-5.82-4.77S13.61,93.65,1.45,100.53a2.11,2.11,0,0,0-.9,1c-.37.88-.75,2.68-.43,6.15C.67,113.57,1.77,123.73,1.77,123.73Z"/><path class="b" d="M34.21,66.83c-4.16,10.86,4.79,20,4.65,30.37-.08,6,4.5,9.9,10.11,12.49,8,3.69,12.69,8.66,8.07,17.54-.65,1.24-.44,2.9-.55,4.36-1,14.1-10.12,20.36-25,17-6.29-1.41-10.42-4.47-10.07-11.48.42-8.38.36-16.53-3.34-24.83-1.93-4.34-1-11.33,6.21-14.56,5-2.24,7.44-6.89,5.79-12C27.87,78.77,30.7,73,34.21,66.83Z"/></svg>